#!OML:ASF F:\VICON\USERDATA\INSTALL\rory3\rory3.ASF
:FULLY-SPECIFIED
:DEGREES
113
root 0.626274 18.6312 7.03565 -175.438 -30.9796 175.274
lowerback 8.90478 1.22861 -4.69615
upperback 2.22006 0.983972 -1.64469
thorax -2.74187 0.439068 0.829012
lowerneck -7.54171 -1.34168 -6.97421
upperneck 26.4273 -3.85582 6.34257
head 9.81704 -2.34981 2.92147
rclavicle -2.15433e-014 0
rhumerus -26.1882 -2.88021 -80.323
rradius 32.1339
rwrist 13.3598
rhand -27.2283 3.32773
rfingers 7.12502
rthumb -0.640563 -26.651
lclavicle -2.15433e-014 0
lhumerus -30.4722 25.5257 67.3603
lradius 20.3553
lwrist -6.16482
lhand -22.6859 26.1497
lfingers 7.12502
lthumb 3.74645 56.0965
rfemur -12.6737 23.3602 14.3063
rtibia 46.8814
rfoot -20.1104 -4.14973
rtoes -10.678
lfemur -12.9496 -1.66678 -20.6535
ltibia 25.3173
lfoot -11.879 7.30474
ltoes -9.00291
114
root 0.570596 18.6428 7.04631 -175.285 -30.2229 175.085
lowerback 8.84716 1.23579 -5.03717
upperback 2.194 0.964501 -1.62843
thorax -2.74173 0.430932 1.03941
lowerneck -7.62076 -1.2729 -7.07318
upperneck 26.4142 -3.72358 6.30119
head 9.81827 -2.30175 2.9374
rclavicle -6.3462e-014 8.34896e-015
rhumerus -26.2978 -2.61233 -80.2671
rradius 32.1226
rwrist 13.5922
rhand -27.2771 2.97049
rfingers 7.12502
rthumb -0.687752 -27.0081
lclavicle -6.3462e-014 8.34896e-015
lhumerus -30.1624 25.4249 67.5918
lradius 20.8417
lwrist -5.47485
lhand -23.0516 26.8786
lfingers 7.12502
lthumb 3.39324 56.8313
rfemur -13.186 23.1357 14.2259
rtibia 46.6043
rfoot -20.6405 -5.09992
rtoes -8.5779
lfemur -12.8373 -1.40357 -21.0618
ltibia 25.2914
lfoot -12.0823 7.72432
ltoes -8.26534
115
root 0.515388 18.6523 7.05555 -175.238 -29.4769 175.223
lowerback 8.75547 1.23424 -5.04206
upperback 2.12978 0.973179 -1.56958
thorax -2.75898 0.439083 1.10281
lowerneck -7.74564 -1.17865 -7.07181
upperneck 26.4283 -3.55991 6.2214
head 9.83321 -2.2326 2.92584
rclavicle -2.45996e-015 -2.98177e-015
rhumerus -26.4106 -2.44027 -80.2194
rradius 32.0245
rwrist 13.9763
rhand -27.131 2.73766
rfingers 7.12502
rthumb -0.54663 -27.2414
lclavicle -2.45996e-015 -2.98177e-015
lhumerus -29.9563 25.4145 67.6499
lradius 21.3425
lwrist -5.22536
lhand -22.7966 26.8514
lfingers 7.12502
lthumb 3.63949 56.8001
rfemur -13.6469 23.003 14.4884
rtibia 46.1254
rfoot -21.4521 -5.70117
rtoes -7.19341
lfemur -12.8439 -1.06942 -21.1598
ltibia 25.3525
lfoot -12.3074 8.0663
ltoes -7.92204
116
root 0.457112 18.66 7.06158 -175.291 -28.769 175.633
lowerback 8.55568 1.22112 -4.72261
upperback 2.10348 1.00736 -1.48626
thorax -2.67329 0.456879 1.00939
lowerneck -7.76599 -1.1361 -7.04625
upperneck 26.2516 -3.47324 6.20989
head 9.76613 -2.18462 2.92474
rclavicle -3.19049e-014 2.54444e-014
rhumerus -26.5234 -2.3456 -80.1814
rradius 31.9685
rwrist 14.1932
rhand -26.9075 2.8588
rfingers 7.12502
rthumb -0.33075 -27.1207
lclavicle -3.19049e-014 2.54444e-014
lhumerus -29.7052 25.258 67.7366
lradius 21.9067
lwrist -4.79128
lhand -22.8678 26.7405
lfingers 7.12502
lthumb 3.57077 56.6903
rfemur -14.0349 22.797 15.0448
rtibia 45.4856
rfoot -22.0605 -6.3131
rtoes -5.84806
lfemur -12.933 -0.826008 -21.0016
ltibia 25.5585
lfoot -12.6146 8.47088
ltoes -7.37767
117
root 0.397459 18.6671 7.06558 -175.416 -28.0457 176.157
lowerback 8.33467 1.17921 -4.24981
upperback 2.10549 1.01673 -1.40097
thorax -2.54241 0.460542 0.83554
lowerneck -7.83977 -1.08829 -7.10999
upperneck 26.0903 -3.39272 6.32218
head 9.7185 -2.13449 2.98218
rclavicle 1.88348e-014 -3.69739e-014
rhumerus -26.5676 -2.18895 -80.2076
rradius 31.8486
rwrist 14.3962
rhand -27.0788 3.65051
rfingers 7.12502
rthumb -0.496177 -26.3287
lclavicle 1.88348e-014 -3.69739e-014
lhumerus -29.4163 24.7393 67.9283
lradius 22.5992
lwrist -3.6566
lhand -23.2557 27.0427
lfingers 7.12502
lthumb 3.1962 56.9985
rfemur -14.3716 22.5344 15.7074
rtibia 44.7304
rfoot -22.4545 -6.55051
rtoes -3.93061
lfemur -13.0412 -0.448663 -20.7217
ltibia 25.8807
lfoot -13.0019 8.72942
ltoes -7.22947
118
root 0.346014 18.6683 7.07023 -175.484 -27.2483 176.564
lowerback 8.15226 1.1836 -3.97639
upperback 2.07956 1.0649 -1.31056
thorax -2.46692 0.485674 0.773495
lowerneck -7.88175 -1.05238 -7.18197
upperneck 25.9836 -3.3427 6.43285
head 9.68674 -2.10377 3.03758
rclavicle -1.18277e-014 2.90226e-014
rhumerus -26.6234 -1.8421 -80.3045
rradius 31.6989
rwrist 14.3997
rhand -28.0325 5.38765
rfingers 7.12502
rthumb -1.41732 -24.5874
lclavicle -1.18277e-014 2.90226e-014
lhumerus -29.2476 24.3192 68.0636
lradius 23.3513
lwrist -2.64619
lhand -23.278 26.9669
lfingers 7.12502
lthumb 3.1746 56.923
rfemur -14.6919 22.2969 16.3096
rtibia 43.9142
rfoot -22.9598 -6.96813
rtoes -3.41075
lfemur -13.1825 0.0117005 -20.5321
ltibia 26.2173
lfoot -13.3519 8.95156
ltoes -7.22891
119
root 0.298382 18.6668 7.0732 -175.427 -26.456 176.711
lowerback 7.97785 1.21195 -3.93456
upperback 2.02873 1.11969 -1.27952
thorax -2.4248 0.514902 0.778864
lowerneck -7.79696 -0.997104 -7.21174
upperneck 25.8482 -3.28225 6.53083
head 9.61846 -2.06973 3.0821
rclavicle 2.7805e-014 -2.00773e-014
rhumerus -26.7592 -1.764 -80.3658
rradius 31.6104
rwrist 14.6995
rhand -29.2413 7.31341
rfingers 7.12502
rthumb -2.58479 -22.6507
lclavicle 2.7805e-014 -2.00773e-014
lhumerus -29.165 23.9119 68.1816
lradius 24.1331
lwrist -1.69551
lhand -23.3785 26.7698
lfingers 7.12502
lthumb 3.07753 56.7274
rfemur -14.9434 21.9812 16.7536
rtibia 43.0948
rfoot -23.3166 -7.78382
rtoes -4.34692
lfemur -13.3018 0.375003 -20.5846
ltibia 26.4927
lfoot -13.6037 9.27935
ltoes -7.27782
120
root 0.249703 18.6686 7.07391 -175.358 -25.7463 176.842
lowerback 7.79398 1.20852 -3.83759
upperback 1.95949 1.135 -1.29795
thorax -2.39266 0.524594 0.706392
lowerneck -7.66452 -0.872668 -7.07912
upperneck 25.7455 -3.15548 6.59082
head 9.54408 -1.99771 3.09214
rclavicle 5.09386e-015 1.33186e-014
rhumerus -26.97 -1.73575 -80.4714
rradius 31.5624
rwrist 15.1123
rhand -29.2639 7.63344
rfingers 7.12502
rthumb -2.6066 -22.3304
lclavicle 5.09386e-015 1.33186e-014
lhumerus -29.147 23.5045 68.1359
lradius 24.8876
lwrist -0.950448
lhand -23.3352 26.4096
lfingers 7.12502
lthumb 3.11943 56.3666
rfemur -15.1481 21.6731 17.1938
rtibia 42.2708
rfoot -23.5922 -8.56603
rtoes -5.69963
lfemur -13.3929 0.653088 -20.6375
ltibia 26.7292
lfoot -13.9267 9.58231
ltoes -7.11871
121
root 0.207117 18.6717 7.0777 -175.283 -25.1355 176.777
lowerback 7.71919 1.19077 -3.9415
upperback 1.9367 1.10402 -1.34731
thorax -2.37441 0.509136 0.717717
lowerneck -7.75185 -0.78039 -6.98749
upperneck 25.7815 -3.06852 6.67793
head 9.56565 -1.94228 3.1158
rclavicle -6.41081e-015 -4.25399e-014
rhumerus -27.1021 -1.7337 -80.5783
rradius 31.4885
rwrist 15.638
rhand -26.7192 4.83283
rfingers 7.12502
rthumb -0.148855 -25.1469
lclavicle -6.41081e-015 -4.25399e-014
lhumerus -29.0825 23.3778 67.9356
lradius 25.4208
lwrist -0.792762
lhand -22.9396 25.3562
lfingers 7.12502
lthumb 3.50138 55.3072
rfemur -15.2749 21.3725 17.4753
rtibia 41.4476
rfoot -23.9721 -9.10297
rtoes -6.52133
lfemur -13.4066 0.914729 -20.857
ltibia 26.9277
lfoot -14.1773 9.7699
ltoes -7.25721
122
root 0.172354 18.6733 7.08406 -175.332 -24.5055 176.872
lowerback 7.75936 1.17093 -3.9894
upperback 1.95281 1.07129 -1.3196
thorax -2.38011 0.492247 0.775879
lowerneck -7.98542 -0.750301 -7.00143
upperneck 25.8449 -3.04332 6.79182
head 9.63223 -1.91733 3.16121
rclavicle -3.74709e-014 -1.19271e-015
rhumerus -27.0356 -1.70464 -80.6688
rradius 31.3038
rwrist 16.1451
rhand -26.0866 4.63048
rfingers 7.12502
rthumb 0.462073 -25.3488
lclavicle -3.74709e-014 -1.19271e-015
lhumerus -28.7432 21.7554 68.7209
lradius 26.8303
lwrist 2.53546
lhand -24.396 28.9112
lfingers 7.12502
lthumb 2.09488 58.8807
rfemur -15.4015 21.2276 17.9277
rtibia 40.6508
rfoot -24.4433 -9.41106
rtoes -6.19652
lfemur -13.3799 1.28872 -20.8833
ltibia 27.1026
lfoot -14.3239 9.81264
ltoes -7.54538
123
root 0.140053 18.6698 7.09236 -175.35 -23.7275 176.967
lowerback 7.79985 1.22183 -4.0205
upperback 1.93264 1.13492 -1.28543
thorax -2.42749 0.525186 0.821317
lowerneck -7.8448 -0.752808 -7.00517
upperneck 25.5706 -3.03492 6.83149
head 9.50747 -1.9059 3.1731
rclavicle 6.85807e-015 -1.39149e-015
rhumerus -27.1134 -1.82358 -80.66
rradius 31.3272
rwrist 16.6388
rhand -26.0836 4.8607
rfingers 7.12502
rthumb 0.464958 -25.1185
lclavicle 6.85807e-015 -1.39149e-015
lhumerus -28.5324 20.7525 69.1251
lradius 27.8727
lwrist 4.38385
lhand -24.9326 29.985
lfingers 7.12502
lthumb 1.57668 59.959
rfemur -15.6958 21.3655 18.2785
rtibia 39.9328
rfoot -24.8649 -9.54607
rtoes -5.01219
lfemur -13.3654 1.68354 -20.9137
ltibia 27.2438
lfoot -14.6409 9.88727
ltoes -7.06261
124
root 0.111465 18.6642 7.1053 -175.306 -23.0122 176.969
lowerback 7.86852 1.24478 -4.14339
upperback 1.89578 1.15196 -1.25022
thorax -2.50763 0.536164 0.923092
lowerneck -7.73943 -0.708208 -6.86224
upperneck 25.3486 -2.92555 6.63358
head 9.39621 -1.8576 3.0873
rclavicle 2.9271e-014 -9.14409e-015
rhumerus -27.3541 -1.99847 -80.5954
rradius 31.661
rwrist 17.2312
rhand -25.8676 5.06059
rfingers 7.12502
rthumb 0.673643 -24.9181
lclavicle 2.9271e-014 -9.14409e-015
lhumerus -28.4445 20.1624 69.2861
lradius 28.7474
lwrist 5.29163
lhand -25.1292 30.2701
lfingers 7.12502
lthumb 1.38678 60.2453
rfemur -16.0191 21.3408 18.5831
rtibia 39.2899
rfoot -25.0204 -10.1505
rtoes -5.37286
lfemur -13.4004 1.98359 -21.0362
ltibia 27.3863
lfoot -15.0241 10.0096
ltoes -6.297
125
root 0.0882156 18.657 7.12075 -175.237 -22.3822 176.785
lowerback 8.05184 1.23065 -4.49576
upperback 1.85585 1.08915 -1.24352
thorax -2.65459 0.508447 1.13012
lowerneck -7.83828 -0.608966 -6.85781
upperneck 25.3646 -2.77588 6.60861
head 9.40835 -1.78987 3.09305
rclavicle 3.56322e-014 2.44505e-014
rhumerus -27.5106 -2.10039 -80.6006
rradius 31.8691
rwrist 17.775
rhand -25.6124 4.33495
rfingers 7.12502
rthumb 0.920101 -25.6428
lclavicle 3.56322e-014 2.44505e-014
lhumerus -28.4612 19.9912 69.1731
lradius 29.4624
lwrist 5.42098
lhand -24.5167 29.6535
lfingers 7.12502
lthumb 1.97834 59.6241
rfemur -16.2654 21.1278 18.7655
rtibia 38.6757
rfoot -25.1459 -10.8144
rtoes -5.73522
lfemur -13.4184 2.19243 -21.3368
ltibia 27.5154
lfoot -15.1712 10.2138
ltoes -5.62353
126
root 0.0593728 18.6494 7.1295 -175.166 -21.7237 176.538
lowerback 8.19595 1.21393 -4.8115
upperback 1.82195 1.0241 -1.28634
thorax -2.77121 0.478608 1.26676
lowerneck -7.9196 -0.502052 -6.93646
upperneck 25.3531 -2.62575 6.68989
head 9.40912 -1.71883 3.15031
rclavicle -9.19379e-015 1.98785e-014
rhumerus -27.4601 -1.77322 -80.7694
rradius 31.6048
rwrist 17.8117
rhand -26.583 3.60358
rfingers 7.12502
rthumb -0.0173827 -26.3762
lclavicle -9.19379e-015 1.98785e-014
lhumerus -28.4792 19.8242 69.0619
lradius 30.2263
lwrist 5.65255
lhand -23.8668 28.3622
lfingers 7.12502
lthumb 2.60596 58.326
rfemur -16.4842 21.0274 18.8286
rtibia 38.0726
rfoot -25.3888 -11.0832
rtoes -5.15876
lfemur -13.4 2.48102 -21.7151
ltibia 27.6577
lfoot -15.2694 10.4045
ltoes -5.31296
